<svg width="72" height="72" viewBox="0 0 72 72" fill="none" xmlns="http://www.w3.org/2000/svg">
<rect y="0.798615" width="71.2014" height="71.2014" rx="35.6007" fill="#FFC702"/>
<rect x="2.04266" y="2.84128" width="67.116" height="67.116" rx="33.558" stroke="black" stroke-opacity="0.2" stroke-width="4.08532"/>
<path opacity="0.3" d="M63.5265 36.8706C63.315 36.4392 62.792 36.2605 62.3592 36.4693L56.1788 39.4504L51.967 41.2616C51.317 41.095 49.6564 40.663 48.1647 40.2241L47.4331 39.9535C47.326 39.9142 47.2159 39.898 47.1081 39.9009C46.5909 39.7349 46.1413 39.5776 45.8384 39.4452C44.3857 38.8102 41.7903 37.3176 40.7442 36.4166C39.5624 35.4023 36.4835 31.6376 36.4526 31.5995C36.1911 31.2791 35.7386 31.186 35.3704 31.3763C34.5235 31.814 31.7767 32.9689 30.3223 32.549C29.5546 32.3223 28.134 31.5486 27.7321 31.0669C27.4642 30.7465 27.2358 29.5916 27.3564 29.2227C27.6703 29.0648 28.8609 29.2649 29.4439 29.3626C30.4417 29.5303 31.3853 29.6888 32.1139 29.4546C33.5328 28.9995 36.3938 26.5724 37.0834 25.9756C37.7678 25.7275 41.1443 24.5975 43.4992 25.5274C44.7416 26.0184 45.9496 26.1878 47.0272 26.1878C49.3576 26.1878 51.0764 25.3927 51.204 25.332L59.7871 20.7779C60.2123 20.5518 60.373 20.0267 60.1459 19.604C59.9181 19.1818 59.3893 19.0216 58.9635 19.2477L50.4188 23.7821C50.3891 23.796 47.3499 25.1804 44.1452 23.9151C41.354 22.8118 37.7329 23.9088 36.635 24.2916C35.417 23.833 31.9933 22.6169 30.472 22.8459C29.0519 23.0622 24.9165 23.2559 23.2413 22.9488C22.5342 22.7505 17.1628 19.8648 12.4688 17.2509C12.0471 17.0167 11.5153 17.1653 11.2794 17.5834C11.0435 18.0009 11.1932 18.5301 11.6137 18.7643C14.6839 20.4743 21.9296 24.4697 22.8942 24.6484C24.9433 25.0255 29.3467 24.7722 30.7347 24.5611C31.4208 24.4576 33.2847 24.967 34.9161 25.5211C33.6965 26.5117 32.2403 27.5902 31.5763 27.803C31.2536 27.9065 30.412 27.7648 29.7352 27.6509C28.3507 27.4184 26.9196 27.1779 26.0808 28.0227C25.1448 28.9752 25.7057 31.3601 26.386 32.1731C27.0879 33.0146 28.8615 33.9277 29.8289 34.2128C31.7114 34.7558 34.3144 33.7681 35.5324 33.2216C36.4538 34.3313 38.5786 36.8504 39.5991 37.7265C40.8723 38.8235 43.727 40.4167 45.133 41.0314C45.6805 41.2708 46.6061 41.5704 47.5951 41.8636L51.6927 43.3793C51.907 43.4892 52.0695 43.6939 52.1761 43.9888C52.3613 44.5017 52.324 45.1864 52.0847 45.6907C51.7923 46.3014 51.1364 46.6194 50.5149 46.5304C50.392 46.4598 50.254 46.4205 50.1113 46.4147L44.5558 43.5533C44.1277 43.3324 43.6 43.499 43.3781 43.924C43.1562 44.3491 43.3227 44.873 43.7514 45.0933L49.3465 47.9744C49.3634 47.9825 49.3809 47.9871 49.3978 47.9952C49.4403 48.215 49.4007 48.3676 49.3378 48.5689C49.2953 48.7042 49.2458 48.8626 49.2207 49.046C48.8538 49.7191 48.0232 50.0169 47.3108 49.7127L42.6215 47.6893C42.6005 47.68 42.5789 47.6766 42.5574 47.669C42.5294 47.6592 42.5015 47.6488 42.4735 47.6424C42.445 47.6355 42.4158 47.632 42.3873 47.6286C42.3594 47.6251 42.332 47.6205 42.3046 47.6193C42.2749 47.6182 42.2458 47.6205 42.2166 47.6228C42.1899 47.6245 42.1631 47.6251 42.1369 47.6297C42.1077 47.6343 42.0798 47.6419 42.0518 47.6494C42.0262 47.6563 42 47.6621 41.9749 47.6714C41.9481 47.6812 41.9231 47.6939 41.8975 47.7061C41.8724 47.7182 41.8474 47.7292 41.8235 47.7436C41.7996 47.7575 41.7781 47.7749 41.7559 47.7911C41.7326 47.8078 41.7099 47.8246 41.6884 47.8437C41.668 47.8622 41.6499 47.883 41.6313 47.9032C41.6115 47.9252 41.5911 47.946 41.5736 47.9698C41.5567 47.9923 41.5433 48.0172 41.5282 48.0415C41.516 48.0617 41.502 48.0791 41.4915 48.1004C41.488 48.1074 41.4868 48.1149 41.4833 48.1218C41.4804 48.1282 41.4758 48.1334 41.4734 48.1398C41.4647 48.1594 41.4612 48.1791 41.4542 48.1993C41.4437 48.2288 41.4327 48.2583 41.4257 48.2878C41.4193 48.3144 41.4164 48.3416 41.4129 48.3688C41.4088 48.3977 41.4041 48.4266 41.4035 48.4555C41.4024 48.4833 41.4047 48.511 41.4064 48.5388C41.4082 48.5665 41.4094 48.5943 41.4134 48.6221C41.4181 48.6498 41.4257 48.677 41.4327 48.7042C41.4397 48.7308 41.4461 48.7568 41.4554 48.7828C41.4653 48.8089 41.4775 48.8343 41.4897 48.8592C41.5014 48.884 41.513 48.9089 41.527 48.932C41.5416 48.9563 41.5591 48.9789 41.5759 49.0014C41.5923 49.024 41.6086 49.046 41.6272 49.0668C41.6464 49.0882 41.6686 49.1067 41.6907 49.1263C41.7117 49.1448 41.7315 49.1639 41.7542 49.1807C41.7781 49.198 41.8043 49.2131 41.8305 49.2281C41.8491 49.2397 41.866 49.253 41.8858 49.2628L43.1358 49.8775C43.8772 50.2274 44.1953 51.111 43.844 51.8484C43.6716 52.2104 43.3682 52.4839 42.9896 52.6181C42.6162 52.7505 42.2149 52.7302 41.8573 52.5614L38.3421 50.9127L39.344 49.2252C40.3085 47.6066 39.7657 45.5074 38.1348 44.5463C38.1342 44.5463 38.1336 44.5457 38.1336 44.5457C37.4055 44.1189 36.5825 43.9888 35.8079 44.1166C35.9669 42.5708 35.2569 41.0106 33.8514 40.1807C33.8502 40.1796 33.8485 40.179 33.8467 40.1779C32.4506 39.3636 30.758 39.4793 29.4771 40.3259C29.2226 39.5741 28.7094 38.9045 27.9691 38.4678C26.326 37.5102 24.2059 38.0497 23.2431 39.6695L20.9004 43.606L15.1667 39.5336C15.1463 39.5192 15.1236 39.5093 15.1021 39.4972C15.0811 39.4851 15.0625 39.47 15.0403 39.4596L8.84239 36.471C8.40904 36.2622 7.88541 36.4409 7.67514 36.8723C7.46429 37.3032 7.64544 37.8225 8.07937 38.0318L14.2109 40.9892L20.0914 45.1662C19.6412 46.6414 20.2428 48.2907 21.6413 49.1096C22.1906 49.4305 22.7934 49.5832 23.3887 49.5832C23.5803 49.5832 23.7702 49.5618 23.9583 49.5306C23.7929 51.0896 24.5093 52.6637 25.9288 53.4976C26.5561 53.8643 27.2556 54.0516 27.9686 54.0516C28.3314 54.0516 28.6978 54.0031 29.0595 53.9048C29.5045 53.7839 29.9186 53.5902 30.2932 53.3398C30.5506 54.0869 31.0655 54.7514 31.8035 55.1857C32.3516 55.5061 32.9538 55.6587 33.5485 55.6587C34.7274 55.6587 35.8783 55.0596 36.522 53.9828L37.4521 52.4151L41.1094 54.1309C41.548 54.3379 42.018 54.4426 42.4898 54.4426C42.8556 54.4426 43.2226 54.3801 43.5779 54.2541C44.3968 53.9643 45.0532 53.3739 45.4248 52.5915C45.6823 52.0508 45.7702 51.4748 45.7178 50.919L46.6183 51.3077C47.0324 51.4852 47.4652 51.5685 47.891 51.5685C49.1467 51.5685 50.3472 50.8404 50.8801 49.626C50.9285 49.5167 50.9529 49.4028 50.9529 49.2836C50.9553 49.2518 50.9856 49.157 51.0071 49.0876C51.0712 48.8823 51.1574 48.6076 51.1684 48.252C52.2169 48.1068 53.1768 47.4568 53.6649 46.4361C54.104 45.5132 54.164 44.352 53.8221 43.4053C53.7056 43.0838 53.542 42.8056 53.3486 42.5598L56.8905 41.0366C56.8969 41.0337 56.9022 41.0297 56.9086 41.0262C56.9138 41.0239 56.9196 41.0233 56.9249 41.0204L63.1228 38.0312C63.5562 37.8202 63.7373 37.3014 63.5265 36.8706ZM22.5284 47.6129C21.7188 47.1393 21.4462 46.1024 21.9203 45.3032L24.7476 40.5514C25.0633 40.0211 25.6312 39.7268 26.2142 39.7268C26.5095 39.7268 26.8089 39.8025 27.0809 39.961C27.8853 40.4358 28.1544 41.4709 27.6802 42.2684L24.8542 47.0208C24.3789 47.82 23.3345 48.0848 22.5284 47.6129ZM28.5982 52.2295C27.9837 52.396 27.3512 52.3145 26.8159 52.0016C25.6958 51.3435 25.3405 49.8677 26.0226 48.7129L29.6827 42.5679C30.1417 41.7924 30.9589 41.3576 31.7889 41.3576C32.1896 41.3576 32.5927 41.4588 32.9596 41.6722C34.0727 42.3308 34.4216 43.8014 33.7372 44.9505L30.0794 51.0948C29.7462 51.6575 29.2203 52.0606 28.5982 52.2295ZM35.0175 53.098C34.541 53.8955 33.4961 54.1604 32.6917 53.6896C31.8809 53.2131 31.6083 52.1762 32.0848 51.3776L34.9097 46.6258C35.226 46.0961 35.7927 45.8023 36.3752 45.8023C36.6716 45.8023 36.9716 45.8787 37.2454 46.0388C38.048 46.513 38.3159 47.5459 37.8406 48.3433L36.6553 50.3408C36.4095 50.4009 36.1911 50.5628 36.0746 50.808C35.9826 51.0017 35.9727 51.2111 36.0251 51.4031L35.0175 53.098Z" fill="black"/>
<mask id="mask0_2064_1898" style="mask-type:alpha" maskUnits="userSpaceOnUse" x="0" y="0" width="72" height="72">
<rect y="0.798615" width="71.2014" height="71.2014" rx="35.6007" fill="#FFC702"/>
<rect x="1.45904" y="2.25766" width="68.2833" height="68.2833" rx="34.1416" stroke="black" stroke-opacity="0.2" stroke-width="2.91809"/>
</mask>
<g mask="url(#mask0_2064_1898)">
<g style="mix-blend-mode:lighten">
<path fill-rule="evenodd" clip-rule="evenodd" d="M42.9464 -13.7107L-6.33862 35.5743L-0.271297 41.6416L49.0137 -7.64337L42.9464 -13.7107ZM67.0403 13.6382L11.6724 69.0062L19.8441 77.1779L75.212 21.8099L67.0403 13.6382ZM-1.16721 46.5287L52.15 -6.78844L54.5671 -4.37128L1.24995 48.9459L-1.16721 46.5287ZM77.2455 24.7269L23.9284 78.0441L26.3455 80.4613L79.6627 27.1441L77.2455 24.7269Z" fill="white" fill-opacity="0.2"/>
</g>
</g>
</svg>
