<svg width="73" height="72" viewBox="0 0 73 72" fill="none" xmlns="http://www.w3.org/2000/svg">
<rect x="0.873901" y="0.798615" width="71.2014" height="71.2014" rx="35.6007" fill="#FFC702"/>
<rect x="2.91656" y="2.84128" width="67.116" height="67.116" rx="33.558" stroke="black" stroke-opacity="0.2" stroke-width="4.08532"/>
<g opacity="0.2">
<path d="M36.6496 55.3086C47.1896 55.3086 55.7339 46.7642 55.7339 36.2243C55.7339 25.6843 47.1896 17.14 36.6496 17.14C26.1096 17.14 17.5653 25.6843 17.5653 36.2243C17.5653 46.7642 26.1096 55.3086 36.6496 55.3086Z" stroke="black" stroke-width="2.33447" stroke-miterlimit="10"/>
<path d="M46.2254 39.4612C46.2254 39.4612 44.5396 46.1373 36.9868 46.1373H36.6496C29.0968 46.1373 27.4109 39.4612 27.4109 39.4612H46.2254Z" stroke="black" stroke-width="2.33447" stroke-miterlimit="10" stroke-linecap="round" stroke-linejoin="round"/>
<path d="M29.5687 34.6058C30.8723 34.6058 31.929 33.5491 31.929 32.2456C31.929 30.942 30.8723 29.8853 29.5687 29.8853C28.2652 29.8853 27.2085 30.942 27.2085 32.2456C27.2085 33.5491 28.2652 34.6058 29.5687 34.6058Z" fill="black"/>
<path d="M43.528 34.6058C44.8315 34.6058 45.8882 33.5491 45.8882 32.2456C45.8882 30.942 44.8315 29.8853 43.528 29.8853C42.2244 29.8853 41.1677 30.942 41.1677 32.2456C41.1677 33.5491 42.2244 34.6058 43.528 34.6058Z" fill="black"/>
</g>
<mask id="mask0_2064_1980" style="mask-type:alpha" maskUnits="userSpaceOnUse" x="0" y="0" width="73" height="72">
<rect x="0.873901" y="0.798615" width="71.2014" height="71.2014" rx="35.6007" fill="#FFC702"/>
<rect x="2.33295" y="2.25766" width="68.2833" height="68.2833" rx="34.1416" stroke="black" stroke-opacity="0.2" stroke-width="2.91809"/>
</mask>
<g mask="url(#mask0_2064_1980)">
<g style="mix-blend-mode:lighten">
<path fill-rule="evenodd" clip-rule="evenodd" d="M43.8204 -13.7107L-5.4646 35.5743L0.602726 41.6416L49.8877 -7.64337L43.8204 -13.7107ZM67.9142 13.6382L12.5462 69.0062L20.7179 77.1779L76.0859 21.8099L67.9142 13.6382ZM-0.293362 46.5287L53.0238 -6.78844L55.441 -4.37128L2.1238 48.9459L-0.293362 46.5287ZM78.1194 24.7269L24.8022 78.0441L27.2194 80.4613L80.5366 27.1441L78.1194 24.7269Z" fill="white" fill-opacity="0.2"/>
</g>
</g>
</svg>
