<svg width="72" height="72" viewBox="0 0 72 72" fill="none" xmlns="http://www.w3.org/2000/svg">
<rect x="0.498291" y="0.798615" width="71.2014" height="71.2014" rx="35.6007" fill="#FFC702"/>
<rect x="2.54095" y="2.84128" width="67.116" height="67.116" rx="33.558" stroke="black" stroke-opacity="0.2" stroke-width="4.08532"/>
<path fill-rule="evenodd" clip-rule="evenodd" d="M40.6067 21.1783C39.7471 20.9316 38.8386 21.3615 38.4803 22.1843L35.4885 29.0554C34.9844 30.2132 34.1663 31.3763 33.1993 32.3324C32.6553 32.8705 32.0286 33.3779 31.3423 33.7846C31.3904 34.0657 31.4154 34.3544 31.4154 34.6486V46.0234C34.7272 46.8668 37.2521 47.3378 39.6262 47.4681C42.2888 47.6145 44.8369 47.3357 48.1565 46.5851C49.3809 46.3082 50.3443 45.3039 50.6015 44.0115L52.539 34.2779C52.7474 33.2306 51.9502 32.2536 50.8874 32.2536H44.3522C42.2705 32.2536 40.687 30.3753 41.0293 28.3121L41.8773 23.1984C42.0267 22.2983 41.4798 21.429 40.6067 21.1783ZM30.5743 49.3012C33.9879 50.1713 36.7579 50.7007 39.4423 50.8481C42.5012 51.016 45.3717 50.6845 48.8963 49.8875C51.4735 49.3046 53.3979 47.2225 53.9049 44.6755L55.8423 34.9417C56.4677 31.7998 54.076 28.8685 50.8874 28.8685H44.3522L45.2003 23.7549C45.6313 21.1567 44.0527 18.6473 41.532 17.9236C39.0511 17.2113 36.4282 18.4522 35.3939 20.8276L32.4023 27.6987C32.0879 28.4206 31.5308 29.2332 30.8365 29.9198C30.4566 30.2955 30.068 30.6017 29.6937 30.8311C28.8052 30.0479 27.6395 29.5711 26.3623 29.5711H21.3092C18.5185 29.5711 16.2561 31.8443 16.2561 34.6486V46.4959C16.2561 49.3002 18.5185 51.5734 21.3092 51.5734H26.3623C28.1221 51.5734 29.6697 50.6703 30.5743 49.3012ZM21.3092 32.9561C20.379 32.9561 19.6248 33.7138 19.6248 34.6486V46.4959C19.6248 47.4307 20.379 48.1884 21.3092 48.1884H26.3623C27.1512 48.1884 27.8173 47.6417 27.9981 46.9028C28.0296 46.7742 28.0467 46.6383 28.0467 46.4959V34.6486C28.0467 34.3209 27.9557 34.02 27.7986 33.7636C27.4994 33.2755 26.9673 32.9561 26.3623 32.9561H21.3092Z" fill="black" fill-opacity="0.2"/>
<mask id="mask0_2064_2019" style="mask-type:alpha" maskUnits="userSpaceOnUse" x="0" y="0" width="72" height="72">
<rect x="0.498291" y="0.798615" width="71.2014" height="71.2014" rx="35.6007" fill="#FFC702"/>
<rect x="1.95734" y="2.25766" width="68.2833" height="68.2833" rx="34.1416" stroke="black" stroke-opacity="0.2" stroke-width="2.91809"/>
</mask>
<g mask="url(#mask0_2064_2019)">
<g style="mix-blend-mode:lighten">
<path fill-rule="evenodd" clip-rule="evenodd" d="M43.4444 -13.7106L-5.84058 35.5744L0.22675 41.6417L49.5118 -7.64331L43.4444 -13.7106ZM67.5384 13.6383L12.1704 69.0062L20.3421 77.1779L75.7101 21.81L67.5384 13.6383ZM-0.669166 46.5288L52.648 -6.78838L55.0652 -4.37122L1.748 48.946L-0.669166 46.5288ZM77.7434 24.727L24.4262 78.0442L26.8434 80.4613L80.1606 27.1442L77.7434 24.727Z" fill="white" fill-opacity="0.2"/>
</g>
</g>
</svg>
