<svg width="72" height="72" viewBox="0 0 72 72" fill="none" xmlns="http://www.w3.org/2000/svg">
<rect x="0.624512" y="0.798615" width="71.2014" height="71.2014" rx="35.6007" fill="#FFC702"/>
<rect x="2.66717" y="2.84128" width="67.116" height="67.116" rx="33.558" stroke="black" stroke-opacity="0.2" stroke-width="4.08532"/>
<path d="M26.0575 35.6462L27.9725 18.776H46.5753V24.2703H33.3755L32.5548 31.4059C34.1202 30.57 35.7845 30.152 37.5475 30.152C40.7087 30.152 43.1861 31.1323 44.9795 33.0929C46.7729 35.0535 47.6696 37.7968 47.6696 41.3228C47.6696 43.4658 47.2136 45.3884 46.3017 47.0906C45.405 48.7776 44.1132 50.0923 42.4261 51.0346C40.7391 51.9617 38.7481 52.4253 36.4532 52.4253C34.447 52.4253 32.5852 52.0225 30.8678 51.217C29.1504 50.3963 27.7901 49.2488 26.787 47.7745C25.7991 46.3003 25.2748 44.6209 25.214 42.7363H31.7341C31.8709 44.1193 32.3496 45.1984 33.1703 45.9735C34.0062 46.7335 35.0929 47.1134 36.4304 47.1134C37.9198 47.1134 39.0673 46.5815 39.8728 45.5176C40.6783 44.4385 41.0811 42.9187 41.0811 40.9581C41.0811 39.0735 40.6175 37.6296 39.6904 36.6265C38.7633 35.6234 37.4487 35.1219 35.7465 35.1219C34.181 35.1219 32.912 35.5323 31.9393 36.353L31.3009 36.9457L26.0575 35.6462Z" fill="black" fill-opacity="0.3"/>
<mask id="mask0_2064_1917" style="mask-type:alpha" maskUnits="userSpaceOnUse" x="0" y="0" width="72" height="72">
<rect x="0.624512" y="0.798615" width="71.2014" height="71.2014" rx="35.6007" fill="#FFC702"/>
<rect x="2.08356" y="2.25766" width="68.2833" height="68.2833" rx="34.1416" stroke="black" stroke-opacity="0.2" stroke-width="2.91809"/>
</mask>
<g mask="url(#mask0_2064_1917)">
<g style="mix-blend-mode:lighten">
<path fill-rule="evenodd" clip-rule="evenodd" d="M43.5709 -13.7107L-5.71411 35.5743L0.353215 41.6416L49.6382 -7.64337L43.5709 -13.7107ZM67.665 13.6382L12.2971 69.0062L20.4688 77.1779L75.8367 21.8099L67.665 13.6382ZM-0.542702 46.5287L52.7745 -6.78844L55.1916 -4.37128L1.87446 48.9459L-0.542702 46.5287ZM77.8701 24.7269L24.5529 78.0441L26.97 80.4613L80.2872 27.1441L77.8701 24.7269Z" fill="white" fill-opacity="0.2"/>
</g>
</g>
</svg>
