<svg width="72" height="72" viewBox="0 0 72 72" fill="none" xmlns="http://www.w3.org/2000/svg">
<rect x="0.123047" y="0.798615" width="71.2014" height="71.2014" rx="35.6007" fill="#FFC702"/>
<rect x="2.16571" y="2.84128" width="67.116" height="67.116" rx="33.558" stroke="black" stroke-opacity="0.2" stroke-width="4.08532"/>
<g opacity="0.2">
<path d="M58.1123 46.1829L55.6569 44.7653L56.0234 44.1303L55.6568 44.7653C54.8192 44.2816 53.867 44.059 52.9079 44.1123L51.5898 44.1855L52.0353 42.9427C52.2235 42.4177 52.3871 41.881 52.5246 41.3342L52.6913 40.6713L53.3747 40.6722L54.6678 40.6738C57.4127 40.6738 59.6474 38.4392 59.6474 35.6942V33.773H56.8122C55.8441 33.773 54.9077 34.0556 54.1041 34.5794L53 35.2991L52.7647 34.0023C52.6642 33.4483 52.5383 32.9022 52.3861 32.3661L52.1994 31.7089L52.7916 31.3682L53.9099 30.7246C53.91 30.7245 53.9101 30.7245 53.9101 30.7245C55.0633 30.0586 55.8853 28.9873 56.2301 27.7009L57.0756 27.9275L56.2301 27.7009C56.5748 26.4145 56.3985 25.0755 55.7326 23.9222L54.772 22.2584L52.3167 23.676L51.9087 22.9693L52.3167 23.676C51.4783 24.1601 50.8092 24.8727 50.3762 25.7278L49.7816 26.9019L48.9286 25.8996C48.545 25.4489 48.1357 25.016 47.7027 24.602L47.2056 24.1269L47.5494 23.5315L48.0889 22.5972C48.0889 22.5972 48.0889 22.5972 48.0889 22.5972C48.7547 21.4438 48.931 20.1049 48.5863 18.8185C48.2416 17.5321 47.4195 16.4607 46.2662 15.7947M58.1123 46.1829L46.2662 15.7947M58.1123 46.1829L57.1516 47.8466L57.1515 47.8467C56.4857 49 55.4143 49.8221 54.1279 50.1668C53.697 50.2822 53.2612 50.3389 52.8296 50.3389C51.9699 50.3389 51.12 50.114 50.3504 49.6699C50.3504 49.6699 50.3504 49.6699 50.3503 49.6699C50.3499 49.6697 50.3496 49.6695 50.3492 49.6692L49.2211 49.0156L48.6297 48.6729L48.1538 49.1636C47.763 49.5665 47.353 49.9505 46.925 50.3141L45.9198 51.1683L47.0975 51.7627C47.9553 52.1957 48.6702 52.8659 49.1555 53.7063C49.1555 53.7063 49.1555 53.7063 49.1555 53.7063L50.573 56.1617L48.9092 57.1223C48.1395 57.5667 47.289 57.7919 46.429 57.7919C45.9972 57.7919 45.5616 57.7352 45.1306 57.6197L45.1306 57.6197C43.8441 57.275 42.7728 56.4529 42.1069 55.2996L41.4633 54.1811L41.1222 53.5885L40.4646 53.7758C38.9582 54.2051 37.368 54.4352 35.7237 54.4352C34.0793 54.4352 32.4889 54.205 30.9823 53.7757L30.3248 53.5883L29.9837 54.1809L29.3409 55.2977C28.6739 56.4529 27.6024 57.2749 26.3161 57.6196L26.316 57.6196C25.8853 57.7351 25.4494 57.7918 25.0177 57.7918C24.1577 57.7918 23.3074 57.5666 22.5375 57.1222C22.5375 57.1222 22.5374 57.1222 22.5374 57.1222L20.8737 56.1616L22.2912 53.7062C22.7766 52.8657 23.4916 52.1954 24.3495 51.7625L25.5273 51.1682L24.5221 50.3139C24.0942 49.9502 23.6842 49.5663 23.2936 49.1634L22.8178 48.6726L22.2263 49.0153L21.0993 49.6681C20.3282 50.1133 19.477 50.3387 18.6168 50.3387C18.1852 50.3387 17.7498 50.2821 17.319 50.1666C16.0325 49.8219 14.9611 48.9998 14.2953 47.8465L14.2952 47.8464L13.3345 46.1827L15.7899 44.7651C15.7899 44.7651 15.7899 44.7651 15.7899 44.7651C16.6277 44.2814 17.5803 44.0587 18.5395 44.1122L19.8577 44.1856L19.4122 42.9427C19.224 42.4174 19.0603 41.8808 18.9229 41.3341L18.7563 40.671L18.0726 40.672L16.7812 40.6738C14.034 40.6738 11.7995 38.4391 11.7995 35.6942V33.773H14.6347C15.603 33.773 16.5396 34.0557 17.3433 34.5797L18.4474 35.2997L18.6828 34.0027C18.7833 33.4487 18.9091 32.9025 19.0614 32.3664L19.248 31.7092L18.6559 31.3684L17.5387 30.7256C17.5385 30.7254 17.5383 30.7253 17.5381 30.7252C16.3832 30.0582 15.5615 28.9869 15.2168 27.7009C14.8721 26.4145 15.0484 25.0756 15.7143 23.9222C15.7143 23.9222 15.7143 23.9222 15.7143 23.9222L16.675 22.2584L19.1304 23.676L19.1304 23.6761C19.9689 24.16 20.638 24.8728 21.071 25.7282L21.6657 26.9026L22.5188 25.9C22.9025 25.4491 23.3118 25.0161 23.745 24.6021L24.2421 24.127L23.8982 23.5315L23.3588 22.5972C21.9863 20.2199 22.8043 17.1672 25.1815 15.7948L25.1815 15.7947L26.8453 14.8341L28.2628 17.2894C28.9286 18.4428 29.105 19.7818 28.7603 21.0682C28.4156 22.3547 27.5935 23.426 26.4402 24.0919L26.4402 24.0919L25.3933 24.6964L25.3251 24.7358L25.265 24.7867C21.6369 27.8624 19.5572 32.3486 19.5572 37.1133C19.5572 46.0284 26.8087 53.2799 35.7238 53.2799C44.6389 53.2799 51.8905 46.0284 51.8905 37.1133C51.8905 32.3486 49.8107 27.8624 46.1827 24.7867L46.1226 24.7358L46.0544 24.6964L45.0075 24.0919L44.5778 24.8361L45.0075 24.0919C43.8541 23.426 43.0321 22.3546 42.6873 21.0681C42.3426 19.7818 42.5189 18.4428 43.1848 17.2895C43.1848 17.2895 43.1848 17.2894 43.1848 17.2894L44.6024 14.8342M58.1123 46.1829L44.6024 14.8342M46.2662 15.7947L44.6024 14.8342M46.2662 15.7947L44.6024 14.8342M48.1859 50.3605C48.3891 50.1692 48.5879 49.9734 48.7822 49.7731L48.2783 51.4589C48.2056 51.5226 48.1324 51.5857 48.0588 51.6483L47.4919 50.9812L47.8864 50.1997C47.9877 50.2508 48.0876 50.3044 48.1859 50.3605Z" stroke="black" stroke-width="1.75085"/>
<path d="M38.4616 33.4748L38.6652 33.8861L39.1193 33.9526L45.2279 34.8474L40.8118 39.1618L40.4835 39.4825L40.5606 39.935L41.5973 46.0211L36.1295 43.1544L35.723 42.9412L35.3165 43.1544L29.8486 46.0211L30.8852 39.9349L30.9623 39.4825L30.634 39.1618L26.218 34.8473L32.3266 33.9526L32.7807 33.886L32.9843 33.4747L35.723 27.9416L38.4616 33.4748Z" stroke="black" stroke-width="1.75085"/>
</g>
<mask id="mask0_2064_2033" style="mask-type:alpha" maskUnits="userSpaceOnUse" x="0" y="0" width="72" height="72">
<rect x="0.123047" y="0.798615" width="71.2014" height="71.2014" rx="35.6007" fill="#FFC702"/>
<rect x="1.58209" y="2.25766" width="68.2833" height="68.2833" rx="34.1416" stroke="black" stroke-opacity="0.2" stroke-width="2.91809"/>
</mask>
<g mask="url(#mask0_2064_2033)">
<g style="mix-blend-mode:lighten">
<path fill-rule="evenodd" clip-rule="evenodd" d="M43.0692 -13.7107L-6.21582 35.5743L-0.148494 41.6416L49.1365 -7.64337L43.0692 -13.7107ZM67.1628 13.6382L11.7948 69.0062L19.9665 77.1779L75.3345 21.8099L67.1628 13.6382ZM-1.04458 46.5287L52.2726 -6.78844L54.6898 -4.37128L1.37258 48.9459L-1.04458 46.5287ZM77.3683 24.7269L24.0512 78.0441L26.4683 80.4613L79.7855 27.1441L77.3683 24.7269Z" fill="white" fill-opacity="0.2"/>
</g>
</g>
</svg>
